<svg width="57" height="80" viewBox="0 0 57 80" fill="none" xmlns="http://www.w3.org/2000/svg">
<path d="M40.0137 24.3379C43.1085 24.3379 46.0765 23.1085 48.2649 20.9201C50.4532 18.7318 51.6826 15.7637 51.6826 12.6689C51.6826 9.57415 50.4532 6.60611 48.2649 4.41775C46.0765 2.2294 43.1085 1 40.0137 1L16.6758 1C13.5828 1 10.6165 2.22868 8.42943 4.41575C6.24236 6.60282 5.01368 9.56913 5.01368 12.6621C5.01368 15.7551 6.24236 18.7214 8.42943 20.9085C10.6165 23.0955 13.5828 24.3242 16.6758 24.3242C13.581 24.3242 10.6129 25.5536 8.42459 27.742C6.23624 29.9303 5.00684 32.8984 5.00684 35.9932C5.00684 39.088 6.23624 42.056 8.42459 44.2444C10.6129 46.4327 13.581 47.6621 16.6758 47.6621C14.3679 47.6608 12.1114 48.3438 10.1917 49.6249C8.27202 50.906 6.77531 52.7275 5.89087 54.8592C5.00642 56.9909 4.77397 59.337 5.22289 61.6008C5.67181 63.8647 6.78195 65.9445 8.41293 67.5774C10.0439 69.2103 12.1225 70.3229 14.3857 70.7744C16.649 71.226 18.9954 70.9963 21.1281 70.1144C23.2609 69.2324 25.0842 67.7378 26.3675 65.8197C27.6508 63.9015 28.3365 61.6458 28.3379 59.3379V24.3379H40.0137ZM40.0137 24.3379C37.7071 24.3379 35.4524 25.0219 33.5346 26.3033C31.6167 27.5848 30.122 29.4061 29.2393 31.5371C28.3566 33.6681 28.1257 36.0129 28.5756 38.2752C29.0256 40.5374 30.1363 42.6154 31.7673 44.2464C33.3983 45.8773 35.4763 46.988 37.7385 47.438C40.0007 47.888 42.3456 47.6571 44.4766 46.7744C46.6075 45.8917 48.4289 44.3969 49.7104 42.4791C50.9918 40.5613 51.6758 38.3065 51.6758 36C51.6754 32.9071 50.4466 29.941 48.2596 27.754C46.0726 25.5671 43.1065 24.3383 40.0137 24.3379Z" fill="white"/>
<defs>
<filter id="filter0_d_2_117" x="0" y="0" width="56.6826" height="80" filterUnits="userSpaceOnUse" color-interpolation-filters="sRGB">
<feFlood flood-opacity="0" result="BackgroundImageFix"/>
</filter>
</defs>
</svg>
