<svg width="85" height="83" viewBox="0 0 85 83" fill="none" xmlns="http://www.w3.org/2000/svg">
<g filter="url(#filter0_d_2_61)">
<path d="M30.0857 59.7795C30.0857 60.0814 29.7379 60.3229 29.2994 60.3229C28.8004 60.3682 28.4526 60.1267 28.4526 59.7795C28.4526 59.4776 28.8004 59.2361 29.2389 59.2361C29.6925 59.1908 30.0857 59.4323 30.0857 59.7795ZM25.3831 59.1002C25.2772 59.4021 25.5796 59.7493 26.0333 59.8399C26.4264 59.9908 26.88 59.8399 26.9708 59.538C27.0615 59.2361 26.7742 58.8889 26.3206 58.753C25.9274 58.6474 25.4889 58.7983 25.3831 59.1002ZM32.0665 58.8436C31.628 58.9493 31.3256 59.2361 31.371 59.5833C31.4163 59.8852 31.8095 60.0814 32.2631 59.9757C32.7016 59.8701 33.004 59.5833 32.9587 59.2814C32.9133 58.9946 32.505 58.7983 32.0665 58.8436ZM42.0161 1C21.0433 1 5 16.8949 5 37.8315C5 54.5718 15.5544 68.8968 30.63 73.9385C32.5655 74.2857 33.246 73.0932 33.246 72.112C33.246 71.1761 33.2006 66.0137 33.2006 62.8438C33.2006 62.8438 22.6159 65.108 20.3931 58.3455C20.3931 58.3455 18.6694 53.9529 16.1895 52.8207C16.1895 52.8207 12.7268 50.4508 16.4315 50.4961C16.4315 50.4961 20.1966 50.798 22.2681 54.3906C25.5796 60.2172 31.129 58.5417 33.2913 57.5454C33.6391 55.1303 34.622 53.4547 35.7107 52.4585C27.2581 51.5226 18.7298 50.2999 18.7298 35.7786C18.7298 31.6275 19.879 29.5444 22.2984 26.8877C21.9052 25.9066 20.62 21.8611 22.6915 16.6383C25.8518 15.6571 33.125 20.7139 33.125 20.7139C36.1492 19.8686 39.4002 19.4309 42.621 19.4309C45.8417 19.4309 49.0927 19.8686 52.1169 20.7139C52.1169 20.7139 59.3901 15.642 62.5504 16.6383C64.622 21.8762 63.3367 25.9066 62.9436 26.8877C65.3629 29.5595 66.8448 31.6426 66.8448 35.7786C66.8448 50.3452 57.9385 51.5075 49.4859 52.4585C50.877 53.651 52.0565 55.9152 52.0565 59.4625C52.0565 64.5495 52.0111 70.844 52.0111 72.0818C52.0111 73.063 52.7067 74.2555 54.627 73.9083C69.748 68.8968 80 54.5718 80 37.8315C80 16.8949 62.9889 1 42.0161 1ZM19.6976 53.0623C19.501 53.2132 19.5464 53.5604 19.8034 53.8472C20.0454 54.0887 20.3931 54.1944 20.5897 53.9981C20.7863 53.8472 20.7409 53.5 20.4839 53.2132C20.2419 52.9717 19.8942 52.866 19.6976 53.0623ZM18.0645 51.8396C17.9587 52.0358 18.1099 52.2773 18.4123 52.4283C18.6542 52.5792 18.9567 52.5339 19.0625 52.3226C19.1683 52.1264 19.0171 51.8849 18.7147 51.7339C18.4123 51.6433 18.1704 51.6886 18.0645 51.8396ZM22.9637 57.2134C22.7218 57.4096 22.8125 57.8624 23.1603 58.1492C23.5081 58.4964 23.9466 58.5417 24.1431 58.3002C24.3397 58.104 24.249 57.6511 23.9466 57.3643C23.6139 57.0171 23.1603 56.9718 22.9637 57.2134ZM21.2399 54.9944C20.998 55.1454 20.998 55.5378 21.2399 55.885C21.4819 56.2322 21.8901 56.3831 22.0867 56.2322C22.3286 56.036 22.3286 55.6435 22.0867 55.2963C21.875 54.9491 21.4819 54.7982 21.2399 54.9944Z" fill="white"/>
</g>
<defs>
<filter id="filter0_d_2_61" x="0" y="0" width="85" height="83" filterUnits="userSpaceOnUse" color-interpolation-filters="sRGB">
<feFlood flood-opacity="0" result="BackgroundImageFix"/>
<feColorMatrix in="SourceAlpha" type="matrix" values="0 0 0 0 0 0 0 0 0 0 0 0 0 0 0 0 0 0 127 0" result="hardAlpha"/>
<feOffset dy="4"/>
<feGaussianBlur stdDeviation="2.5"/>
<feComposite in2="hardAlpha" operator="out"/>
<feColorMatrix type="matrix" values="0 0 0 0 0 0 0 0 0 0 0 0 0 0 0 0 0 0 1 0"/>
<feBlend mode="normal" in2="BackgroundImageFix" result="effect1_dropShadow_2_61"/>
<feBlend mode="normal" in="SourceGraphic" in2="effect1_dropShadow_2_61" result="shape"/>
</filter>
</defs>
</svg>
