<svg width="72" height="72" viewBox="0 0 72 72" fill="none" xmlns="http://www.w3.org/2000/svg">
<path d="M5 1V62.25H66.25V1H5ZM38.332 48.7695C38.332 54.7305 34.832 57.4512 29.7324 57.4512C25.125 57.4512 22.459 55.0723 21.0918 52.1875L25.7812 49.3574C26.6836 50.957 27.5039 52.3105 29.4863 52.3105C31.373 52.3105 32.5762 51.5723 32.5762 48.6875V29.123H38.332V48.7695ZM51.9492 57.4512C46.6035 57.4512 43.1445 54.9082 41.4629 51.5723L46.1523 48.8652C47.3828 50.875 48.9961 52.3652 51.8262 52.3652C54.2051 52.3652 55.7363 51.1758 55.7363 49.5215C55.7363 47.5527 54.1777 46.8555 51.5391 45.6934L50.1035 45.0781C45.9473 43.3145 43.1992 41.0859 43.1992 36.3965C43.1992 32.0762 46.4941 28.7949 51.6211 28.7949C55.2852 28.7949 57.9102 30.0664 59.7969 33.4023L55.3125 36.2734C54.3281 34.5098 53.2617 33.8125 51.6074 33.8125C49.9258 33.8125 48.8594 34.8789 48.8594 36.2734C48.8594 37.9961 49.9258 38.6934 52.4004 39.7734L53.8359 40.3887C58.7305 42.4805 61.4785 44.627 61.4785 49.4395C61.4785 54.6074 57.4043 57.4512 51.9492 57.4512Z" fill="white"/>
</svg>
