<svg width="119" height="77" viewBox="0 0 119 77" fill="none" xmlns="http://www.w3.org/2000/svg">
<g filter="url(#filter0_d_2_99)">
<path d="M58.8698 67.6069C58.5122 67.6069 58.1545 67.505 57.8309 67.335L54.5609 65.3979C54.067 65.1261 54.3055 65.0241 54.4758 64.9731C55.123 64.7522 55.2592 64.7012 55.9575 64.2934C56.0256 64.2595 56.1278 64.2764 56.1959 64.3104L58.7166 65.8057C58.8017 65.8567 58.938 65.8567 59.0231 65.8057L68.8672 60.1303C68.9523 60.0794 69.0205 59.9774 69.0205 59.8585V48.5247C69.0205 48.4057 68.9694 48.3038 68.8672 48.2528L59.0231 42.5944C58.938 42.5434 58.8187 42.5434 58.7166 42.5944L48.8725 48.2528C48.7703 48.3038 48.7192 48.4227 48.7192 48.5247V59.8585C48.7192 59.9604 48.7873 60.0624 48.8725 60.1134L51.5634 61.6596C53.0281 62.3903 53.9308 61.5237 53.9308 60.6741V49.4762C53.9308 49.3233 54.05 49.1874 54.2203 49.1874H55.4636C55.6169 49.1874 55.7531 49.3063 55.7531 49.4762V60.6741C55.7531 62.6282 54.6972 63.7327 52.8408 63.7327C52.2787 63.7327 51.8189 63.7327 50.5756 63.121L47.9869 61.6427C47.3567 61.2688 46.948 60.5891 46.948 59.8585V48.5247C46.948 47.794 47.3397 47.0973 47.9869 46.7405L57.8309 41.0651C58.4611 40.7083 59.2786 40.7083 59.8917 41.0651L69.7358 46.7405C70.3659 47.1143 70.7747 47.794 70.7747 48.5247V59.8585C70.7747 60.5891 70.383 61.2858 69.7358 61.6427L59.8917 67.318C59.6022 67.505 59.2445 67.6069 58.8698 67.6069ZM66.8234 56.4261C66.8234 54.302 65.3928 53.7413 62.3612 53.3335C59.2956 52.9257 58.9891 52.7218 58.9891 52.0081C58.9891 51.4134 59.2445 50.6317 61.5097 50.6317C63.5364 50.6317 64.2858 51.0735 64.5923 52.4329C64.6264 52.5688 64.7286 52.6538 64.8648 52.6538H66.1422C66.2273 52.6538 66.2955 52.6198 66.3466 52.5688C66.3977 52.5009 66.4317 52.4329 66.4147 52.3479C66.2103 50.003 64.6605 48.9155 61.5097 48.9155C58.6995 48.9155 57.0305 50.105 57.0305 52.0761C57.0305 54.2341 58.6995 54.8118 61.3905 55.0837C64.6094 55.4065 64.8648 55.8653 64.8648 56.494C64.8648 57.5985 63.9792 58.0573 61.9014 58.0573C59.2956 58.0573 58.7166 57.4116 58.5292 56.1202C58.5122 55.9843 58.393 55.8823 58.2397 55.8823H56.9623C56.8091 55.8823 56.6728 56.0013 56.6728 56.1712C56.6728 57.8194 57.5755 59.7905 61.8844 59.7905C65.0352 59.7905 66.8234 58.5671 66.8234 56.4261ZM76.1055 47.913C76.1055 48.9495 75.2539 49.7991 74.215 49.7991C73.1761 49.7991 72.3245 48.9495 72.3245 47.913C72.3245 46.8425 73.2102 46.0268 74.215 46.0268C75.2369 46.0098 76.1055 46.8425 76.1055 47.913ZM75.7989 47.913C75.7989 47.0294 75.0836 46.3327 74.198 46.3327C73.3294 46.3327 72.6141 47.0294 72.6141 47.913C72.6141 48.7966 73.3294 49.5102 74.198 49.5102C75.0836 49.4932 75.7989 48.7796 75.7989 47.913ZM75.0325 48.9665H74.5897C74.5727 48.8645 74.5045 48.3208 74.5045 48.3038C74.4705 48.1848 74.4364 48.1169 74.2831 48.1169H73.9084V48.9665H73.4997V46.8425H74.232C74.4875 46.8425 74.9814 46.8425 74.9814 47.4032C74.9814 47.794 74.7259 47.879 74.5727 47.93C74.8622 47.947 74.8792 48.1339 74.9303 48.4057C74.9473 48.5757 74.9814 48.8645 75.0325 48.9665ZM74.5556 47.4712C74.5556 47.1823 74.3512 47.1823 74.2491 47.1823H73.9084V47.777H74.232C74.5045 47.777 74.5556 47.5901 74.5556 47.4712ZM28.3839 23.2573C28.3839 22.7985 28.1455 22.3907 27.7537 22.1698L17.3136 16.1716C17.1433 16.0696 16.9389 16.0186 16.7345 16.0016H16.6323C16.428 16.0016 16.2406 16.0696 16.0533 16.1716L5.63016 22.1698C5.23844 22.3907 5 22.8155 5 23.2573L5.01703 39.3999C5.01703 39.6208 5.13625 39.8247 5.32359 39.9436C5.51094 40.0626 5.74937 40.0626 5.95375 39.9436L12.1531 36.3923C12.5448 36.1544 12.7833 35.7466 12.7833 35.3048V27.7602C12.7833 27.3184 13.0217 26.8936 13.4134 26.6727L16.0533 25.1604C16.2577 25.0415 16.462 24.9905 16.6834 24.9905C16.9048 24.9905 17.1263 25.0415 17.3136 25.1604L19.9534 26.6727C20.3452 26.8936 20.5836 27.3184 20.5836 27.7602V35.3048C20.5836 35.7466 20.822 36.1714 21.2137 36.3923L27.4131 39.9436C27.6005 40.0626 27.8559 40.0626 28.0433 39.9436C28.2306 39.8417 28.3498 39.6208 28.3498 39.3999L28.3839 23.2573ZM85.4727 5.6364V35.6106C85.4727 36.0524 85.2342 36.4772 84.8425 36.6981L74.4023 42.7134C74.0106 42.9343 73.5338 42.9343 73.142 42.7134L62.7019 36.6981C62.3102 36.4772 62.0717 36.0524 62.0717 35.6106V23.5802C62.0717 23.1384 62.3102 22.7135 62.7019 22.4927L73.142 16.4774C73.5338 16.2565 74.0106 16.2565 74.4023 16.4774L77.0081 17.9727C77.2977 18.1426 77.6723 17.9218 77.6723 17.5989V1.62624C77.6723 1.15046 78.1833 0.844602 78.6091 1.08249L84.8255 4.5489C85.2172 4.75281 85.4727 5.17761 85.4727 5.6364ZM77.6383 27.5393C77.6383 27.4204 77.5702 27.3184 77.485 27.2675L73.9084 25.1944C73.8063 25.1434 73.687 25.1434 73.5848 25.1944L70.0083 27.2675C69.9061 27.3184 69.855 27.4204 69.855 27.5393V31.6684C69.855 31.7874 69.9231 31.8893 70.0083 31.9403L73.5848 33.9964C73.687 34.0473 73.8062 34.0473 73.8914 33.9964L77.468 31.9403C77.5702 31.8893 77.6212 31.7874 77.6212 31.6684V27.5393H77.6383ZM113.37 27.4204C113.762 27.1995 114 26.7747 114 26.3329V23.4272C114 22.9854 113.762 22.5606 113.37 22.3397L102.998 16.3245C102.606 16.1036 102.129 16.1036 101.737 16.3245L91.2973 22.3397C90.9056 22.5606 90.6672 22.9854 90.6672 23.4272V35.4577C90.6672 35.9165 90.9056 36.3243 91.2973 36.5452L101.669 42.4415C102.044 42.6624 102.521 42.6624 102.913 42.4415L109.18 38.9581C109.606 38.7202 109.606 38.1085 109.18 37.8706L98.6719 31.8553C98.4675 31.7364 98.3483 31.5325 98.3483 31.3116V27.5393C98.3483 27.3184 98.4675 27.1145 98.6719 26.9956L101.942 25.1094C102.129 24.9905 102.385 24.9905 102.572 25.1094L105.842 26.9956C106.029 27.1145 106.166 27.3184 106.166 27.5393V30.496C106.166 30.9718 106.694 31.2776 107.119 31.0397L113.37 27.4204ZM100.205 28.0151C100.137 28.0661 100.085 28.1341 100.085 28.219V30.53C100.085 30.6149 100.137 30.6999 100.205 30.7339L102.214 31.8893C102.282 31.9403 102.385 31.9403 102.453 31.8893L104.462 30.7339C104.531 30.6829 104.582 30.6149 104.582 30.53V28.219C104.582 28.1341 104.531 28.0491 104.462 28.0151L102.453 26.8596C102.385 26.8087 102.282 26.8087 102.214 26.8596L100.205 28.0151ZM56.9112 35.4067V23.4442C56.9112 23.0024 56.6387 22.5776 56.247 22.3567L45.8409 16.3755C45.4833 16.1716 44.9894 16.1376 44.5806 16.3755L34.1745 22.3567C33.7828 22.5776 33.5103 22.9854 33.5103 23.4442V35.4067C33.5103 35.8825 33.8339 36.2903 34.1916 36.4942L44.6147 42.4755C45.0234 42.7134 45.5003 42.6964 45.875 42.4755L56.2641 36.4942C56.5706 36.3243 56.792 36.0354 56.8772 35.6956C56.8942 35.6106 56.9112 35.5087 56.9112 35.4067ZM44.257 14.1835L44.1208 14.2684H44.3081L44.257 14.1835ZM57.2348 36.3073L57.1667 36.1884V36.3413L57.2348 36.3073Z" fill="white"/>
</g>
<defs>
<filter id="filter0_d_2_99" x="0" y="0" width="119" height="76.6069" filterUnits="userSpaceOnUse" color-interpolation-filters="sRGB">
<feFlood flood-opacity="0" result="BackgroundImageFix"/>
<feColorMatrix in="SourceAlpha" type="matrix" values="0 0 0 0 0 0 0 0 0 0 0 0 0 0 0 0 0 0 127 0" result="hardAlpha"/>
<feOffset dy="4"/>
<feGaussianBlur stdDeviation="2.5"/>
<feComposite in2="hardAlpha" operator="out"/>
<feColorMatrix type="matrix" values="0 0 0 0 0 0 0 0 0 0 0 0 0 0 0 0 0 0 1 0"/>
<feBlend mode="normal" in2="BackgroundImageFix" result="effect1_dropShadow_2_99"/>
<feBlend mode="normal" in="SourceGraphic" in2="effect1_dropShadow_2_99" result="shape"/>
</filter>
</defs>
</svg>
