<svg width="84" height="74" viewBox="0 0 84 74" fill="none" xmlns="http://www.w3.org/2000/svg">
<g filter="url(#filter0_d_2_76)">
<path d="M64.7397 21.74C63.9683 21.4828 63.1969 21.24 62.4255 21.0114C62.5541 20.4829 62.6683 19.9543 62.7826 19.4258C64.5397 10.912 63.3826 4.06948 59.4828 1.81246C55.7259 -0.344572 49.5976 1.89817 43.3979 7.29788C42.7837 7.82642 42.1837 8.38353 41.6123 8.94065C41.2266 8.56924 40.8267 8.19783 40.4267 7.84071C33.927 2.06959 27.4131 -0.358857 23.5133 1.91245C19.7706 4.08376 18.6564 10.5263 20.2278 18.583C20.3849 19.3829 20.5563 20.1686 20.7563 20.9686C19.8421 21.2257 18.9421 21.5114 18.0993 21.8114C10.4711 24.4541 5 28.6253 5 32.9394C5 37.3963 10.8283 41.8675 18.7564 44.5816C19.3992 44.7959 20.0421 45.0101 20.6992 45.1959C20.4849 46.053 20.2992 46.8958 20.1278 47.7671C18.6278 55.6953 19.7992 61.9807 23.5419 64.1377C27.3988 66.3661 33.8842 64.0806 40.1981 58.5523C40.6981 58.1095 41.1981 57.6523 41.698 57.1666C42.3266 57.7809 42.9837 58.3666 43.6408 58.938C49.7547 64.1948 55.7973 66.3233 59.5257 64.1663C63.3826 61.9378 64.6397 55.181 63.0112 46.9529C62.8826 46.3244 62.7398 45.6815 62.5826 45.0244C63.0398 44.8959 63.4826 44.753 63.9254 44.6102C72.1678 41.8817 78.1389 37.4677 78.1389 32.9394C78.1389 28.611 72.5107 24.4112 64.7397 21.74ZM45.4121 9.61204C50.7261 4.98372 55.683 3.16953 57.94 4.46946C60.3542 5.8551 61.2827 11.4548 59.7685 18.8115C59.6685 19.2972 59.5685 19.7686 59.4399 20.24C56.2687 19.5258 53.0546 19.0115 49.8262 18.7258C47.9691 16.0688 45.9407 13.5261 43.7408 11.1405C44.2979 10.612 44.8407 10.112 45.4121 9.61204ZM28.8844 40.3533C29.613 41.596 30.3558 42.8388 31.1415 44.0531C28.913 43.8102 26.6988 43.4531 24.5132 42.9817C25.1418 40.9247 25.9275 38.7962 26.8417 36.6249C27.4988 37.882 28.1702 39.1247 28.8844 40.3533ZM24.5561 23.1685C26.6131 22.7113 28.7987 22.3399 31.07 22.0542C30.3129 23.2399 29.5701 24.4541 28.8702 25.6826C28.1702 26.8968 27.4845 28.1396 26.8417 29.3967C25.9417 27.2682 25.1846 25.1826 24.5561 23.1685ZM28.4702 33.0108C29.413 31.0395 30.4415 29.111 31.5272 27.2111C32.6128 25.3112 33.7842 23.4684 35.0127 21.6543C37.1554 21.4971 39.341 21.4114 41.5695 21.4114C43.7979 21.4114 45.9978 21.4971 48.1263 21.6543C49.3405 23.4542 50.4976 25.2969 51.5975 27.1825C52.6975 29.0681 53.726 30.9966 54.6973 32.9536C53.7402 34.925 52.7117 36.8677 51.6118 38.7819C50.5261 40.6818 49.3691 42.5246 48.1548 44.353C46.0264 44.5102 43.8122 44.5816 41.5695 44.5816C39.3267 44.5816 37.1554 44.5102 35.0555 44.3816C33.8127 42.5674 32.6414 40.7104 31.5414 38.8105C30.4415 36.9106 29.4273 34.9821 28.4702 33.0108ZM54.2688 40.3247C54.9973 39.0676 55.683 37.7962 56.3544 36.5106C57.2686 38.5819 58.0686 40.6818 58.7686 42.8388C56.5544 43.3388 54.3116 43.7245 52.0546 43.9816C52.826 42.7817 53.5545 41.5532 54.2688 40.3247ZM56.3258 29.3967C55.6544 28.1396 54.9688 26.8825 54.2545 25.654C53.5545 24.4398 52.826 23.2399 52.0689 22.0542C54.3688 22.3399 56.5687 22.7256 58.6257 23.197C57.9686 25.3112 57.1972 27.3682 56.3258 29.3967ZM41.598 13.3261C43.098 14.9546 44.5122 16.6688 45.8264 18.4401C42.998 18.3116 40.1553 18.3116 37.3268 18.4401C38.7268 16.5974 40.1695 14.8832 41.598 13.3261ZM25.0275 4.56945C27.4274 3.16953 32.7557 5.16942 38.3696 10.1406C38.7268 10.4549 39.0839 10.7977 39.4553 11.1405C37.2411 13.5261 35.1984 16.0688 33.3271 18.7258C30.0987 19.0115 26.8988 19.5115 23.7276 20.2115C23.5419 19.4829 23.3847 18.7401 23.2276 17.9973C21.8848 11.0834 22.7705 5.86938 25.0275 4.56945ZM21.5277 42.2246C20.9277 42.0532 20.342 41.8675 19.7564 41.6675C16.7137 40.7104 13.2567 39.1962 10.7568 37.2106C9.31405 36.2106 8.34268 34.6678 8.07126 32.9394C8.07126 30.3252 12.5853 26.9825 19.0992 24.7112C19.9135 24.4255 20.742 24.1684 21.5705 23.9256C22.5419 27.0254 23.7133 30.0681 25.0704 33.0108C23.699 35.9963 22.5133 39.0819 21.5277 42.2246ZM38.1839 56.2238C35.8269 58.3809 33.0985 60.0951 30.1272 61.2664C28.5416 62.0235 26.7131 62.095 25.0846 61.4521C22.8133 60.1379 21.8705 55.0953 23.1562 48.31C23.3133 47.51 23.4847 46.7101 23.6847 45.9244C26.8845 46.6101 30.1129 47.0815 33.3842 47.3243C35.2698 49.9956 37.3411 52.5526 39.5553 54.9525C39.0982 55.3953 38.6411 55.8239 38.1839 56.2238ZM41.6838 52.7526C40.2267 51.1812 38.7696 49.4385 37.3554 47.5672C38.7268 47.6243 40.141 47.6529 41.5695 47.6529C43.0408 47.6529 44.4836 47.6243 45.9121 47.5529C44.5979 49.3671 43.1837 51.0955 41.6838 52.7526ZM60.3542 57.0381C60.2256 58.7808 59.3685 60.4093 57.9972 61.5093C55.7259 62.8235 50.8833 61.1093 45.655 56.6238C45.055 56.1096 44.455 55.5524 43.8408 54.981C46.0264 52.5669 48.0406 50.0099 49.869 47.3243C53.1403 47.0529 56.3973 46.5529 59.6114 45.8244C59.7542 46.4101 59.8828 46.9958 59.9971 47.5672C60.697 50.6527 60.8113 53.8668 60.3542 57.0381ZM62.954 41.6818C62.5541 41.8103 62.1541 41.9389 61.7398 42.0532C60.7399 38.939 59.5114 35.8964 58.0972 32.9394C59.4685 30.0252 60.6256 27.0254 61.597 23.9541C62.3398 24.1684 63.054 24.397 63.7397 24.6255C70.3965 26.9111 75.0677 30.3109 75.0677 32.9108C75.0677 35.7106 70.0822 39.3247 62.954 41.6818ZM41.5695 39.539C45.1836 39.539 48.112 36.6106 48.112 32.9965C48.112 29.3824 45.1836 26.454 41.5695 26.454C37.9554 26.454 35.027 29.3824 35.027 32.9965C35.027 36.6106 37.9554 39.539 41.5695 39.539Z" fill="white"/>
</g>
<defs>
<filter id="filter0_d_2_76" x="0" y="0" width="83.1389" height="74" filterUnits="userSpaceOnUse" color-interpolation-filters="sRGB">
<feFlood flood-opacity="0" result="BackgroundImageFix"/>
<feColorMatrix in="SourceAlpha" type="matrix" values="0 0 0 0 0 0 0 0 0 0 0 0 0 0 0 0 0 0 127 0" result="hardAlpha"/>
<feOffset dy="4"/>
<feGaussianBlur stdDeviation="2.5"/>
<feComposite in2="hardAlpha" operator="out"/>
<feColorMatrix type="matrix" values="0 0 0 0 0 0 0 0 0 0 0 0 0 0 0 0 0 0 1 0"/>
<feBlend mode="normal" in2="BackgroundImageFix" result="effect1_dropShadow_2_76"/>
<feBlend mode="normal" in="SourceGraphic" in2="effect1_dropShadow_2_76" result="shape"/>
</filter>
</defs>
</svg>
