<svg width="64" height="64" viewBox="0 0 64 64" fill="none" xmlns="http://www.w3.org/2000/svg">
<path d="M59.4286 0H4.55714C2.04286 0 0 2.07143 0 4.61429V59.3857C0 61.9286 2.04286 64 4.55714 64H59.4286C61.9429 64 64 61.9286 64 59.3857V4.61429C64 2.07143 61.9429 0 59.4286 0ZM19.3429 54.8571H9.85714V24.3143H19.3571V54.8571H19.3429ZM14.6 20.1429C11.5571 20.1429 9.1 17.6714 9.1 14.6429C9.1 11.6143 11.5571 9.14286 14.6 9.14286C17.6286 9.14286 20.1 11.6143 20.1 14.6429C20.1 17.6857 17.6429 20.1429 14.6 20.1429ZM54.9 54.8571H45.4143V40C45.4143 36.4571 45.3429 31.9 40.4857 31.9C35.5429 31.9 34.7857 35.7571 34.7857 39.7429V54.8571H25.3V24.3143H34.4V28.4857H34.5286C35.8 26.0857 38.9 23.5571 43.5143 23.5571C53.1143 23.5571 54.9 29.8857 54.9 38.1143V54.8571Z" fill="white"/>
</svg>
