<svg width="61" height="61" viewBox="0 0 61 61" fill="none" xmlns="http://www.w3.org/2000/svg">
<path d="M0 30.5V61H61V0H0V30.5ZM37.0143 49.8828C37.2888 49.7277 38.3131 49.1355 39.2815 48.5738L41.0352 47.5571L41.4038 48.101C41.9172 48.8839 43.038 49.959 43.7167 50.3174C45.6636 51.3442 48.3349 51.1993 49.6515 50.0175C50.142 49.6032 50.4495 48.9881 50.4495 48.3018C50.4495 48.2612 50.4495 48.223 50.447 48.1824V48.1875C50.447 47.4809 50.358 47.1708 49.9895 46.637C49.5168 45.961 48.5484 45.3916 45.7983 44.197C42.6517 42.8423 41.297 42.001 40.0567 40.6641C39.3094 39.8152 38.7325 38.7935 38.397 37.67L38.3817 37.6141C38.1504 36.7525 38.092 34.5921 38.275 33.7228C38.9231 30.6805 41.2182 28.5632 44.53 27.9329C45.6051 27.7296 48.1036 27.8058 49.1584 28.0676V28.0702C50.7088 28.4565 51.8881 29.1453 52.9734 30.2687C53.5351 30.8685 54.3688 31.9615 54.4349 32.2258C54.4552 32.302 51.8017 34.0812 50.1954 35.0801C50.1369 35.1182 49.9031 34.8666 49.6438 34.4803C48.8559 33.3365 48.035 32.8434 46.7768 32.757C44.9265 32.6299 43.737 33.5983 43.7472 35.2148C43.7472 35.2427 43.7446 35.2758 43.7446 35.3088C43.7446 35.6926 43.8412 36.0535 44.0115 36.3687L44.0064 36.356C44.4131 37.1973 45.1705 37.7031 47.5393 38.7274C51.9085 40.6082 53.7766 41.846 54.9381 43.6074C56.2344 45.5721 56.5267 48.711 55.6447 51.0443C54.6789 53.5809 52.277 55.3041 48.8966 55.8735C47.852 56.059 45.3738 56.031 44.2504 55.8277C41.8003 55.3905 39.4772 54.1807 38.0437 52.5922C37.482 51.9745 36.3865 50.3555 36.4551 50.2411C36.4831 50.2005 36.7347 50.0454 37.0143 49.8828ZM13.3641 30.6652C13.3641 29.308 13.392 28.1744 13.4302 28.149C13.4607 28.1083 18.2924 28.088 24.1484 28.0981L34.8107 28.1286L34.8386 30.6169L34.859 33.1154H26.9163V55.6752H21.2992V33.1154H13.3641V30.6652Z" fill="white"/>
</svg>
